<svg viewBox="0 0 40 40" fill="#000" xmlns="http://www.w3.org/2000/svg"><path fill-rule="evenodd" clip-rule="evenodd" d="M3.688 12.688V6.3c0-3.034 3.286-4.928 5.91-3.407l23.646 13.699c2.619 1.517 2.619 5.297 0 6.814l-10.577 6.128-2.052-11.727a6.188 6.188 0 0 0-6.095-5.12H3.688zm0 14.626v6.385c0 3.034 3.286 4.928 5.91 3.407l7.267-4.21-5.584-5.582H3.687zM13.1 16.5a1.833 1.833 0 1 1-3.667 0 1.833 1.833 0 0 1 3.667 0zm0 7a1.833 1.833 0 1 1-3.667 0 1.833 1.833 0 0 1 3.667 0zm-5.333-1.667a1.833 1.833 0 1 0 0-3.666 1.833 1.833 0 0 0 0 3.666zM16.633 20a1.833 1.833 0 1 1-3.666 0 1.833 1.833 0 0 1 3.666 0z"></path><path fill="#fff" d="M3.688 12.688v14.626h7.593l5.584 5.582 5.803-3.36-2.053-11.727a6.189 6.189 0 0 0-6.095-5.122H3.688zm7.58 1.978c1.012 0 1.832.822 1.832 1.834a1.833 1.833 0 1 1-1.832-1.834zm-3.5 3.5c1.012 0 1.832.822 1.832 1.834a1.833 1.833 0 1 1-1.832-1.834zm7.033 0c1.012 0 1.832.822 1.832 1.834a1.833 1.833 0 1 1-1.832-1.834zm-3.533 3.5c1.012 0 1.832.822 1.832 1.834a1.833 1.833 0 1 1-1.832-1.834z" ></path></svg>