<?xml version="1.0" encoding="utf-8"?>
<!-- Generator: Adobe Illustrator 23.0.1, SVG Export Plug-In . SVG Version: 6.00 Build 0)  -->
<svg version="1.1" id="Шар_1" xmlns="http://www.w3.org/2000/svg" xmlns:xlink="http://www.w3.org/1999/xlink" x="0px" y="0px"
	 viewBox="0 0 478.633 534.478" enable-background="new 0 0 478.633 534.478" xml:space="preserve">
<g>
	<path id="art_layer_-_play_shape_1_" d="M0,475.22V59.229C0,13.727,49.285-14.776,88.774,8.027l360.28,207.969
		c39.438,22.803,39.438,79.705,0,102.456L88.774,526.473C49.336,549.224,0,520.773,0,475.22z"/>
	<path fill-rule="evenodd" clip-rule="evenodd" fill="white" d="M257.98,236.208c-7.981-46.486-48.3-80.275-95.46-80.275H0
		v222.584h115.567l84.007,84.007l89.034-51.409L257.98,236.208z M115.36,186.042c15.34,0,27.829,12.49,27.829,27.985
		c0,15.34-12.49,27.829-27.829,27.829c-15.495,0-27.985-12.49-27.985-27.829C87.375,198.532,99.865,186.042,115.36,186.042z
		 M62.085,295.183c-15.34,0-27.829-12.49-27.829-27.985c0-15.34,12.49-27.829,27.829-27.829c15.495,0,27.985,12.49,27.985,27.829
		C90.07,282.694,77.58,295.183,62.085,295.183z M115.36,348.303c-15.495,0-27.985-12.334-27.985-27.829
		c0-15.34,12.49-27.829,27.985-27.829c15.34,0,27.829,12.49,27.829,27.829C143.19,335.969,130.7,348.303,115.36,348.303z
		 M169.205,295.183c-15.495,0-27.985-12.49-27.985-27.985c0-15.34,12.49-27.829,27.985-27.829c15.34,0,27.829,12.49,27.829,27.829
		C196.983,282.694,184.493,295.183,169.205,295.183z"/>
</g>
</svg>
